<?xml version="1.0" encoding="utf-8"?>
<!-- Generator: Adobe Illustrator 19.2.0, SVG Export Plug-In . SVG Version: 6.00 Build 0)  -->
<svg version="1.1" id="Calque_1" xmlns="http://www.w3.org/2000/svg" xmlns:xlink="http://www.w3.org/1999/xlink" x="0px" y="0px"
	 viewBox="0 0 735 300" style="enable-background:new 0 0 735 300;" xml:space="preserve">
<style type="text/css">
	.st0{fill:#003568;}
	.st1{fill:#D40920;}
</style>
<g>
	<path class="st0" d="M0,261.9h6.5v31.5h18.9v5.6H0V261.9z"/>
	<path class="st0" d="M24.5,273.6c2.5-0.3,3.2-2.3,3.2-4.6h-3.2v-7H31v7c0,4-2.5,7.1-6.5,7.6V273.6z"/>
	<path class="st0" d="M42.5,261.9H49V299h-6.5V261.9z"/>
	<path class="st0" d="M57.9,261.9H67l10.2,29h0.1l10-29h9V299h-6.2v-28.6h-0.1L79.8,299h-5.4l-10.3-28.6h-0.1V299h-6.2V261.9z"/>
	<path class="st0" d="M105.1,261.9h9.1l10.2,29h0.1l10-29h9V299h-6.2v-28.6h-0.1L127,299h-5.3l-10.3-28.6h-0.1V299h-6.2V261.9z"/>
	<path class="st0" d="M186,280.5c0,10.6-6.6,19.4-17.8,19.4c-11.1,0-17.8-8.8-17.8-19.4c0-10.6,6.6-19.4,17.8-19.4
		C179.4,261.1,186,269.9,186,280.5z M157,280.5c0,7.1,3.3,14.1,11.3,14.1c7.9,0,11.3-7,11.3-14.1c0-7.1-3.3-14.1-11.3-14.1
		C160.3,266.4,157,273.4,157,280.5z"/>
	<path class="st0" d="M193,261.9h18c6.6,0,11,3,11,9.2c0,3.7-1.9,6.4-5.3,7.9v0.1c4.5,1,7,4.5,7,9.6c0,5.8-4,10.3-13.7,10.3h-17
		V261.9z M199.5,277.5h10.6c3.1,0,5.5-1.8,5.5-5.1c0-3.7-1.9-5.1-5.5-5.1h-10.6V277.5z M199.5,293.7H211c3.9,0,6.2-2.1,6.2-5.9
		c0-3.6-2.3-5.7-6.2-5.7h-11.5V293.7z"/>
	<path class="st0" d="M230.6,261.9h6.5V299h-6.5V261.9z"/>
	<path class="st0" d="M246.1,261.9h6.5v31.5h18.9v5.6h-25.4V261.9z"/>
	<path class="st0" d="M277,261.9h6.5V299H277V261.9z"/>
	<path class="st0" d="M292.4,261.9h26.7v5.6h-20.2v9.7h18.7v5.3h-18.7v10.9h20.6v5.6h-27.1V261.9z"/>
	<path class="st0" d="M326.2,261.9h17.7c8.1,0,12.3,3.7,12.3,10c0,7.1-4.9,8.9-6.1,9.4v0.1c2.2,0.3,5.5,2,5.5,7.8
		c0,4.3,0.6,8.3,2,9.8h-7c-1-1.6-1-3.6-1-5.5c0-6.8-1.4-9.8-7.4-9.8h-9.6V299h-6.5V261.9z M332.7,278.8h10.7c4.1,0,6.3-2,6.3-5.9
		c0-4.7-3.1-5.7-6.4-5.7h-10.5V278.8z"/>
	<path class="st0" d="M395.9,261.9h17.7c8.1,0,12.3,3.7,12.3,10c0,7.1-4.9,8.9-6.1,9.4v0.1c2.2,0.3,5.5,2,5.5,7.8
		c0,4.3,0.6,8.3,2,9.8h-7c-1-1.6-1-3.6-1-5.5c0-6.8-1.4-9.8-7.4-9.8h-9.6V299h-6.5V261.9z M402.4,278.8H413c4.1,0,6.3-2,6.3-5.9
		c0-4.7-3.1-5.7-6.4-5.7h-10.5V278.8z"/>
	<path class="st0" d="M433.5,261.9h26.7v5.6H440v9.7h18.7v5.3H440v10.9h20.6v5.6h-27.1V261.9z M446.7,250.8h7l-7.4,7.4H442
		L446.7,250.8z"/>
	<path class="st0" d="M471.6,286.7c0,5.7,4.2,7.9,9.4,7.9c5.7,0,7.8-2.8,7.8-5.6c0-2.9-1.6-4-3.1-4.6c-2.6-1-6-1.7-11.1-3.1
		c-6.3-1.7-8.2-5.6-8.2-9.4c0-7.4,6.9-10.9,13.6-10.9c7.7,0,14.2,4.1,14.2,11.8h-6.5c-0.3-4.8-3.5-6.5-8-6.5c-3,0-6.8,1.1-6.8,4.8
		c0,2.6,1.8,4,4.4,4.8c0.6,0.2,8.8,2.3,10.7,2.9c4.9,1.5,7.2,5.6,7.2,9.5c0,8.3-7.4,11.6-14.8,11.6c-8.5,0-15.3-4-15.5-13.2H471.6z"
		/>
	<path class="st0" d="M502,261.9h6.5V299H502V261.9z"/>
	<path class="st0" d="M517.5,261.9h15.4c11.4,0,16.4,8.3,16.4,18.5c0,10.2-4.9,18.5-16.4,18.5h-15.4V261.9z M524,293.7h6.4
		c10.2,0,12.4-5.8,12.4-13.2c0-7.4-2.2-13.2-12.4-13.2H524V293.7z"/>
	<path class="st0" d="M556,261.9h26.7v5.6h-20.2v9.7h18.7v5.3h-18.7v10.9h20.6v5.6H556V261.9z"/>
	<path class="st0" d="M589.6,261.9h6.9l16.9,27.3h0.1v-27.3h6.2V299h-6.9l-16.9-27.3h-0.2V299h-6.2V261.9z"/>
	<path class="st0" d="M624.8,261.9h30v5.6h-11.8V299h-6.5v-31.5h-11.7V261.9z"/>
	<path class="st0" d="M660.2,261.9h6.5V299h-6.5V261.9z"/>
	<path class="st0" d="M675.7,261.9h26.7v5.6h-20.2v9.7h18.7v5.3h-18.7v10.9h20.6v5.6h-27.1V261.9z"/>
	<path class="st0" d="M709.5,261.9h6.5v31.5h18.9v5.6h-25.4V261.9z"/>
</g>
<g>
	<path class="st0" d="M68.9,137.3c-6.9-6.8-16.5-10.2-28.5-10.2H0.2v113.7h24v-39.8h16.2c12,0,21.6-3.4,28.5-10.1
		c7-6.7,10.5-15.7,10.5-26.8C79.4,153.2,75.9,144.1,68.9,137.3z M55.5,164.3c0,4.7-1.3,8.5-3.8,11.5c-2.5,2.9-6.2,4.3-11.2,4.3H24.2
		v-32h16.2c5.1,0,8.7,1.5,11.2,4.4C54.2,155.6,55.5,159.5,55.5,164.3z"/>
	<path class="st0" d="M169.3,235.8c-1.5-1.3-2.6-3.5-3.2-6.4c-0.7-3.2-1.1-6.3-1.1-9.2v-8.1c0-6.9-1.4-12.8-4.1-17.6
		c-2.2-3.8-5.5-6.8-9.8-8.9c3.7-2.3,6.7-5.2,8.9-8.5c2.9-4.4,4.4-9.7,4.4-15.7c0-10.7-3.5-19.3-10.3-25.3c-6.8-6-16.2-9.1-28.1-9.1
		H89.4v113.7h24V197h13.9c4.4,0,7.7,1.3,10.1,3.9c2.4,2.6,3.6,6.5,3.6,11.4v7.8c0,3.5,0.3,7.2,0.8,11.1c0.6,4.2,2,7.3,4.2,9.2
		l0.6,0.5H170v-4.5L169.3,235.8z M140.4,162.5c0,4.6-1.1,7.9-3.5,10.2c-2.3,2.2-6.1,3.4-11.2,3.4h-12.2v-28H126
		c4.8,0,8.3,1.2,10.7,3.8C139.2,154.5,140.4,158,140.4,162.5z"/>
	<path class="st0" d="M251.3,139.5c-8.1-9.2-18.8-13.9-31.8-13.9c-12.9,0-23.4,4.7-31.5,13.9c-8,9.1-12,20.8-12,34.7v19.7
		c0,13.9,4,25.6,12,34.7c8,9.2,18.7,13.9,31.6,13.9c12.9,0,23.6-4.7,31.7-13.8c8-9.1,12.1-20.8,12.1-34.7v-19.7
		C263.5,160.3,259.4,148.6,251.3,139.5z M219.7,221.3c-6.2,0-10.9-2.4-14.3-7.4c-3.5-5.1-5.3-11.9-5.3-20.1V174
		c0-8.1,1.8-14.8,5.3-19.9c3.4-5,8.1-7.4,14.2-7.4c6.2,0,11,2.4,14.5,7.4c3.6,5.1,5.5,11.8,5.5,19.9v19.9c0,8.2-1.8,15-5.4,20.1
		C230.6,218.9,225.9,221.3,219.7,221.3z"/>
	<polygon class="st0" points="353.3,127.1 328.9,204 304.7,127.1 275,127.1 275,240.8 299,240.8 299,174.9 320.7,240.8 337.2,240.8 
		358.9,175 358.9,240.8 382.9,240.8 382.9,127.1 	"/>
	<path class="st0" d="M469.3,139.5c-8.1-9.2-18.8-13.9-31.8-13.9c-12.9,0-23.4,4.7-31.5,13.9c-8,9.1-12,20.8-12,34.7v19.7
		c0,13.9,4,25.6,12,34.7c8,9.2,18.7,13.9,31.6,13.9c12.9,0,23.6-4.7,31.7-13.8c8-9.1,12.1-20.8,12.1-34.7v-19.7
		C481.4,160.3,477.3,148.6,469.3,139.5z M457.5,174v19.9c0,8.2-1.8,15-5.4,20.1c-3.5,5-8.2,7.4-14.4,7.4c-6.2,0-10.9-2.4-14.3-7.4
		c-3.5-5.1-5.3-11.9-5.3-20.1V174c0-8.1,1.8-14.8,5.3-19.9c3.4-5,8.1-7.4,14.2-7.4c6.2,0,11,2.4,14.5,7.4
		C455.6,159.2,457.5,165.9,457.5,174z"/>
	<path class="st0" d="M530.2,179.5v19.2h19.2v18.4c-1.3,1.1-3,2.1-5.1,3c-2.5,1-6.1,1.5-10.6,1.5c-5.8,0-10.4-2.3-13.8-7
		c-3.6-4.8-5.4-11.3-5.4-19.1v-23.1c0-7.7,1.8-14.1,5.3-18.9c3.4-4.7,7.7-7,13.2-7c5.3,0,9.2,1.4,11.9,4.2c2.7,2.8,4.1,7,4.1,12.2v2
		h22.3l0.4-1.4l0.2-1c0.2-11.1-3.1-20.2-10-26.9c-6.9-6.7-16.8-10.1-29.5-10.1c-12.2,0-22.4,4.4-30.2,13.2
		c-7.8,8.7-11.7,20.1-11.7,33.8v22.9c0,13.8,4.1,25.1,12.1,33.8c8,8.7,18.5,13.2,31.1,13.2c10,0,18.4-1.7,24.8-5.2
		c6.4-3.4,11.4-7.5,14.6-12.3l0.4-0.5v-45H530.2z"/>
	<rect x="587.6" y="127.1" class="st0" width="24" height="113.7"/>
	<polygon class="st0" points="705.4,127.1 681,204 656.8,127.1 627.1,127.1 627.1,240.8 651.1,240.8 651.1,174.9 672.8,240.8 
		689.3,240.8 711,175 711,240.8 735,240.8 735,127.1 	"/>
</g>
<circle class="st0" cx="599.9" cy="34.5" r="34.4"/>
<path class="st1" d="M651.2,34.5c0,28.4-23,51.3-51.3,51.3c-28.4,0-51.3-23-51.3-51.3H0.1v66.9h734.8V34.5H651.2z"/>
</svg>
