<svg xmlns="http://www.w3.org/2000/svg" viewBox="0 0 104.96 105.31" fill="#ffff"><defs></defs><g id="Calque_2" data-name="Calque 2"><g id="Calque_1-2" data-name="Calque 1"><path class="cls-1" d="M104.87,52.39c1.38-20.6-13.47-41.6-34.44-49.25A52.62,52.62,0,0,0,11,84.89,51.17,51.17,0,0,0,39,103.45c16.46,4.35,31.61,1,47.23-9.7L94.45,105V79.75H69.62L76.4,87C65,97.18,44.52,97.72,29.91,88.45A42.4,42.4,0,0,1,52.74,10.24a41.89,41.89,0,0,1,25.75,8.81c10.86,8.4,15.84,19.85,16.82,33.34Z"/><path d="M104.87,52.39H95.31c-1-13.49-6-24.94-16.82-33.34a41.89,41.89,0,0,0-25.75-8.81A42.4,42.4,0,0,0,29.91,88.45C44.52,97.72,65,97.18,76.4,87l-6.78-7.28H94.45V105L86.19,93.75c-15.62,10.72-30.77,14-47.23,9.7A51.17,51.17,0,0,1,11,84.89,52.62,52.62,0,0,1,70.43,3.14C91.4,10.79,106.25,31.79,104.87,52.39Z"/><rect x="47.98" y="21.18" width="9.52" height="36.12"/><rect x="55.85" y="40.02" width="9.52" height="25.28" transform="translate(113.27 -7.96) rotate(90)"/></g></g></svg>